# xmcd CD database file
#
# Track frame offsets:
#	150
#	21446
#	44845
#	65430
#	84962
#	105735
#	128639
#	151029
#	173348
#	190448
#	212126
#
# Disc length: 3157 seconds
#
# Revision: 0
# Processed by: cddbd v1.5.2PL0 Copyright (c) Steve Scherf et al.
# Submitted via: cdripper 1,0,39,0213
#
DISCID=8e0c530b
DTITLE=Konstantin - Smoothing
DYEAR=2008
DGENRE=Jazz
TTITLE0=Stylish Walk
TTITLE1=Smoothing
TTITLE2=Autum's Edge
TTITLE3=Walking Away
TTITLE4=Chica Timida
TTITLE5=Spinning Along
TTITLE6=Silky Way
TTITLE7=Words Of Love
TTITLE8=Fresh Feeling
TTITLE9=Drive Me Home
TTITLE10=Let's Chill
EXTD=YEAR: 2008
EXTT0=
EXTT1=
EXTT2=
EXTT3=
EXTT4=
EXTT5=
EXTT6=
EXTT7=
EXTT8=
EXTT9=
EXTT10=
PLAYORDER=
